<svg xmlns="http://www.w3.org/2000/svg" width="30" height="30" viewBox="0 0 30 30">
  <path id="noun_profile_2988993" d="M22.6,7.6a15,15,0,1,0,15,15A15.017,15.017,0,0,0,22.6,7.6Zm0,27.17a12.06,12.06,0,0,1-6.62-1.956c.02-.117.046-.231.072-.346.016-.071.029-.143.047-.213.044-.169.1-.334.155-.5.01-.03.018-.062.029-.091.07-.192.149-.38.236-.564.026-.055.057-.107.084-.161.064-.127.129-.253.2-.375.04-.067.084-.131.126-.2.066-.1.132-.208.2-.308.049-.068.1-.134.154-.2.071-.092.143-.184.219-.272.057-.066.117-.129.176-.192.077-.083.155-.165.237-.244.064-.062.129-.121.2-.18.083-.075.168-.148.255-.219.069-.056.14-.111.211-.164q.134-.1.273-.194.111-.075.225-.146c.1-.059.193-.115.292-.169.078-.043.157-.086.237-.126.1-.051.206-.1.311-.143.081-.035.162-.071.244-.1.109-.043.221-.08.333-.117.082-.027.163-.056.247-.08.119-.034.24-.061.361-.089.08-.018.159-.04.241-.055.136-.026.274-.043.413-.061.069-.009.137-.022.207-.028.21-.02.422-.031.636-.031s.427.011.636.031c.07.007.138.019.207.028.138.017.277.035.413.061.081.015.161.037.241.055.121.028.242.055.36.089.084.024.165.053.247.08.112.037.223.074.333.117.083.032.164.068.245.1.1.046.209.092.31.143.08.04.159.083.237.126.1.054.2.11.291.169q.115.071.226.146.138.093.272.193c.072.054.143.108.213.165.086.07.17.143.253.218.066.06.133.119.2.181.081.078.158.16.235.242.06.064.121.128.178.195.075.087.146.178.216.269.052.067.106.134.156.2.071.1.136.2.2.3.043.067.088.132.128.2.07.119.133.242.2.366.029.057.062.112.089.17.086.183.165.37.235.562.013.035.022.071.034.106.055.159.107.319.15.483.019.071.031.144.048.216.026.114.051.227.071.343A12.062,12.062,0,0,1,22.6,34.768ZM18.641,20.139A3.957,3.957,0,1,1,22.6,24.1,3.961,3.961,0,0,1,18.641,20.139ZM31.608,30.787c0-.009-.008-.018-.011-.027-.073-.2-.153-.4-.239-.6l-.053-.119c-.09-.2-.184-.394-.287-.585l-.023-.041c-.1-.182-.205-.36-.316-.535-.02-.032-.04-.065-.061-.1q-.173-.266-.362-.519l-.076-.1c-.132-.172-.267-.34-.41-.5l0,0c-.143-.162-.294-.318-.447-.471l-.091-.089q-.227-.219-.467-.422l-.087-.072q-.233-.192-.478-.371l-.05-.037c-.173-.124-.352-.24-.533-.353l-.115-.07c-.181-.109-.366-.213-.555-.309l-.084-.041-.007,0a6.787,6.787,0,1,0-8.508,0l-.007,0-.085.042c-.189.1-.373.2-.554.309l-.116.071c-.181.112-.359.228-.532.352L17,26.234q-.244.177-.476.369l-.089.073q-.24.2-.466.421l-.092.091c-.153.152-.3.307-.446.469l-.006.007c-.141.16-.275.327-.406.5l-.078.1q-.188.252-.36.516c-.022.034-.043.068-.064.1-.109.172-.213.348-.311.527l-.027.047c-.1.189-.2.383-.285.58-.019.041-.038.083-.056.125-.085.2-.165.394-.237.6,0,.01-.008.02-.012.03a12.056,12.056,0,0,1-3.16-8.188,12.17,12.17,0,1,1,24.34,0A12.055,12.055,0,0,1,31.608,30.787Z" transform="translate(-7.598 -7.598)"/>
</svg>
