<svg xmlns="http://www.w3.org/2000/svg" width="30" height="30" viewBox="0 0 30 30">
  <path id="noun_Star_2985628" d="M34.992,18.149a.16.16,0,0,0-.128-.112l-10.18-1.55L20.15,6.8a.158.158,0,0,0-.142-.093h0a.158.158,0,0,0-.142.093l-4.552,9.682L5.136,18.037a.161.161,0,0,0-.128.112.169.169,0,0,0,.039.169l7.359,7.554L10.667,36.52a.168.168,0,0,0,.063.161.157.157,0,0,0,.093.031.155.155,0,0,0,.074-.019l9.109-5.023L29.1,36.693a.154.154,0,0,0,.167-.012.167.167,0,0,0,.063-.161L27.584,25.871l7.369-7.554A.169.169,0,0,0,34.992,18.149Z" transform="translate(-5 -6.712)" fill="#f0d714"/>
</svg>
